<?xml version="1.0" encoding="utf-8"?>
<!-- Generator: Adobe Illustrator 23.0.2, SVG Export Plug-In . SVG Version: 6.00 Build 0)  -->
<svg version="1.1" id="Layer_1" xmlns="http://www.w3.org/2000/svg" xmlns:xlink="http://www.w3.org/1999/xlink" x="0px" y="0px"
	 viewBox="0 0 46 2" style="enable-background:new 0 0 46 2;" xml:space="preserve">
<style type="text/css">
	.st0{fill:#FFFF33;}
	.st1{fill:#212529;}
</style>
<g>
	<path class="st0" d="M44.85,1.83H1.15C0.74,1.83,0.4,1.5,0.4,1.08v0c0-0.41,0.34-0.75,0.75-0.75h43.7c0.41,0,0.75,0.34,0.75,0.75v0
		C45.6,1.5,45.26,1.83,44.85,1.83z"/>
</g>
<rect x="0.8" class="st1" width="44.4" height="0.33"/>
<rect x="-0.13" y="0.8" transform="matrix(8.049034e-11 -1 1 8.049034e-11 -0.8 1.2)" class="st1" width="0.67" height="0.4"/>
<rect x="0.43" y="0.3" transform="matrix(1.609806e-10 -1 1 1.609806e-10 0.1 1.1)" class="st1" width="0.33" height="0.4"/>
<rect x="0.43" y="1.3" transform="matrix(1.609806e-10 -1 1 1.609806e-10 -0.9 2.1)" class="st1" width="0.33" height="0.4"/>
<rect x="0.8" y="1.67" class="st1" width="44.4" height="0.33"/>
<rect x="45.47" y="0.8" transform="matrix(-8.049022e-11 -1 1 -8.049022e-11 44.8 46.8)" class="st1" width="0.67" height="0.4"/>
<rect x="45.23" y="0.3" transform="matrix(-1.609805e-10 -1 1 -1.609805e-10 44.9 45.9)" class="st1" width="0.33" height="0.4"/>
<rect x="45.23" y="1.3" transform="matrix(-1.609805e-10 -1 1 -1.609805e-10 43.9 46.9)" class="st1" width="0.33" height="0.4"/>
</svg>
