<?xml version="1.0" encoding="utf-8"?>
<!-- Generator: Adobe Illustrator 23.0.2, SVG Export Plug-In . SVG Version: 6.00 Build 0)  -->
<svg version="1.1" id="Layer_1" xmlns="http://www.w3.org/2000/svg" xmlns:xlink="http://www.w3.org/1999/xlink" x="0px" y="0px"
	 viewBox="0 0 33 2" style="enable-background:new 0 0 33 2;" xml:space="preserve">
<style type="text/css">
	.st0{fill:#FFFF33;}
	.st1{fill:#212529;}
</style>
<g>
	<path class="st0" d="M31.85,1.83H1.15C0.74,1.83,0.4,1.5,0.4,1.08l0,0c0-0.41,0.34-0.75,0.75-0.75h30.7c0.41,0,0.75,0.34,0.75,0.75
		l0,0C32.6,1.5,32.26,1.83,31.85,1.83z"/>
</g>
<rect x="0.8" class="st1" width="31.4" height="0.33"/>
<rect x="0" y="0.66" class="st1" width="0.4" height="0.67"/>
<rect x="0.4" y="0.34" class="st1" width="0.4" height="0.33"/>
<rect x="0.4" y="1.34" class="st1" width="0.4" height="0.33"/>
<rect x="0.8" y="1.67" class="st1" width="31.4" height="0.33"/>
<rect x="32.6" y="0.66" class="st1" width="0.4" height="0.67"/>
<rect x="32.2" y="0.34" class="st1" width="0.4" height="0.33"/>
<rect x="32.2" y="1.34" class="st1" width="0.4" height="0.33"/>
</svg>
